  <svg width="40" xmlns="https://www.w3.org/2000/svg" viewBox="0 0 317.8 448.5"><path fill="#113c6c" d="M61.8 0v448.5l97.1-59 97.1 59V0z"></path> <path d="M5.2 202C2.7 117.3 75 43.2 164.6 44.5c83.9 1.2 158.4 72.1 154.4 165-3.4 78.8-69.6 151.3-160.4 149.9C74.3 358.1 2.9 287 5.2 202z" opacity=".3"></path> <path d="M317.8 199c0-87.8-71.1-158.9-158.9-158.9S0 111.2 0 199s71.1 158.9 158.9 158.9S317.8 286.7 317.8 199" fill="#b17208"></path> <path fill="#f3a240" d="M158.9 84.2l33.8 68.2 72.1 11.3-51.2 53.1 15.9 70.5-70.6-30.8-70.6 30.8 15.9-70.5L53 163.7l72.1-11.3z"></path></svg>